<?xml version="1.0" standalone="no"?><!DOCTYPE svg PUBLIC "-//W3C//DTD SVG 1.1//EN" "http://www.w3.org/Graphics/SVG/1.1/DTD/svg11.dtd"><svg t="1690514637327" class="icon" viewBox="0 0 1024 1024" version="1.1" xmlns="http://www.w3.org/2000/svg" p-id="1973" xmlns:xlink="http://www.w3.org/1999/xlink" width="200" height="200"><path d="M541.976961 587.998912c0 11.377778 4.411791 22.198277 12.538776 30.32526l315.048345 315.025125H588.64907a44.512653 44.512653 0 0 0-44.535873 44.559093c0 24.613152 19.922721 44.535873 44.535873 44.535873h384.638549c1.277098 0.13932 2.554195 0.278639 3.691973 0.278639 5.410249 0 10.10068-1.555737 14.373152-2.972154 1.973696-0.719819 3.970612-1.439637 5.967528-2.414875 0.696599-0.278639 1.695057-0.557279 2.856055-0.859138a16.253968 16.253968 0 0 0 8.823582-4.411792 14.419592 14.419592 0 0 0 3.274014-6.710567c0.13932-0.417959 0.278639-1.137778 0.441179-1.416417 3.970612-5.549569 6.687347-11.958277 7.825125-19.063583v-0.417959c0.1161-0.13932 0.1161-0.13932 0.1161-0.301859a9.589841 9.589841 0 0 0 0.441179-2.693515v-0.16254a8.289524 8.289524 0 0 0 0.580499-3.250793V589.415329c0-24.613152-20.062041-44.559093-44.675193-44.559093s-44.535873 19.945941-44.535873 44.559093v285.605442L615.119819 557.696871c-8.126984-8.103764-18.924263-12.515556-30.325261-12.515556s-22.198277 4.411791-30.302041 12.515556a42.399637 42.399637 0 0 0-12.515556 30.302041zM0.510839 42.144218c-0.13932 0.696599-0.580499 1.857596-0.441179 3.274013v388.493062a44.512653 44.512653 0 1 0 89.071746 0v-285.605443l317.34712 317.347121c8.103764 8.103764 18.784943 12.515556 30.302041 12.515555a42.794376 42.794376 0 0 0 30.325261-73.142857L152.067483 89.954104h281.054331a44.512653 44.512653 0 1 0 0-89.071746H48.320726c-6.965986-0.859138-12.956735 1.137778-18.065125 2.856055a49.226304 49.226304 0 0 0-5.967528 2.391655 20.944399 20.944399 0 0 1-2.856055 0.835918 16.253968 16.253968 0 0 0-8.823583 4.411792 14.396372 14.396372 0 0 0-3.250793 6.687347C9.195102 18.506304 9.055782 19.226122 8.916463 19.504762a44.373333 44.373333 0 0 0-7.825125 19.063583v0.441179c-0.13932 0.13932-0.13932 0.13932-0.13932 0.278639-0.16254 0.580499-0.441179 1.555737-0.441179 2.693515v0.16254z m0 0" fill="#ffffff" p-id="1974"></path></svg>