<?xml version="1.0" standalone="no"?><!DOCTYPE svg PUBLIC "-//W3C//DTD SVG 1.1//EN" "http://www.w3.org/Graphics/SVG/1.1/DTD/svg11.dtd"><svg t="1690792612347" class="icon" viewBox="0 0 1024 1024" version="1.1" xmlns="http://www.w3.org/2000/svg" p-id="1342" xmlns:xlink="http://www.w3.org/1999/xlink" width="200" height="200"><path d="M853.333333 128a128 128 0 0 1 127.786667 120.490667L981.333333 256v170.666667a42.666667 42.666667 0 0 1-85.034666 4.992L896 426.666667V256a42.666667 42.666667 0 0 0-37.674667-42.368L853.333333 213.333333H170.666667a42.666667 42.666667 0 0 0-42.368 37.674667L128 256v512a42.666667 42.666667 0 0 0 37.674667 42.368L170.666667 810.666667h213.333333a42.666667 42.666667 0 0 1 4.992 85.034666L384 896H170.666667a128 128 0 0 1-127.786667-120.490667L42.666667 768V256a128 128 0 0 1 120.490666-127.786667L170.666667 128h682.666666z m42.666667 469.333333a85.333333 85.333333 0 0 1 85.333333 85.333334v128a85.333333 85.333333 0 0 1-85.333333 85.333333h-256a85.333333 85.333333 0 0 1-85.333333-85.333333v-128a85.333333 85.333333 0 0 1 85.333333-85.333334zM282.154667 299.349333l4.010666 3.584 128.597334 128.597334 0.042666-67.626667a42.666667 42.666667 0 0 1 37.717334-42.368l4.949333-0.298667a42.666667 42.666667 0 0 1 42.368 37.674667l0.298667 4.992v170.666667l-0.128 3.626666-0.341334 2.730667a46.08 46.08 0 0 1-1.024 4.864l-0.682666 2.261333-0.725334 2.090667-1.152 2.602667-1.152 2.304a38.229333 38.229333 0 0 1-4.010666 6.016l-3.285334 3.669333c-1.706667 1.706667-3.456 3.2-5.333333 4.522667l-2.602667 1.706666-1.706666 1.024a45.141333 45.141333 0 0 1-9.344 3.754667l-2.56 0.597333a47.061333 47.061333 0 0 1-3.626667 0.597334l-1.365333 0.128a42.922667 42.922667 0 0 1-2.218667 0.128H286.805333a42.666667 42.666667 0 0 1-4.949333-84.992l4.949333-0.298667 67.626667-0.042667-128.597333-128.597333a42.666667 42.666667 0 0 1 56.32-63.914667z" fill="#ffffff" p-id="1343"></path></svg>