<?xml version="1.0" standalone="no"?><!DOCTYPE svg PUBLIC "-//W3C//DTD SVG 1.1//EN" "http://www.w3.org/Graphics/SVG/1.1/DTD/svg11.dtd"><svg t="1691481749549" class="icon" viewBox="0 0 1024 1024" version="1.1" xmlns="http://www.w3.org/2000/svg" p-id="9581" xmlns:xlink="http://www.w3.org/1999/xlink" width="200" height="200"><path d="M802.133 288c10.667-12.8 10.667-29.867 0-42.667s-29.866-10.666-42.666 0c-10.667 10.667-10.667 29.867 0 40.534C770.133 300.8 789.333 300.8 802.133 288z m89.6 206.933c-23.466 0-42.666 19.2-42.666 42.667s19.2 40.533 42.666 40.533 42.667-19.2 42.667-40.533c0-25.6-19.2-42.667-42.667-42.667z m-145.066 268.8c-21.334 21.334-19.2 55.467 2.133 74.667s55.467 19.2 74.667-2.133 19.2-55.467-2.134-74.667C800 740.267 768 742.4 746.667 763.733zM512 851.2c-36.267 0-66.133 29.867-66.133 66.133s29.866 64 66.133 64 66.133-29.866 66.133-66.133-29.866-64-66.133-64zM187.733 750.933c-29.866 29.867-29.866 78.934 0 108.8s78.934 29.867 108.8 0c29.867-29.866 29.867-78.933 0-108.8-29.866-32-76.8-32-108.8 0zM221.867 537.6c0-49.067-40.534-89.6-89.6-89.6-49.067 0-89.6 40.533-89.6 89.6s40.533 89.6 89.6 89.6c49.066-2.133 89.6-40.533 89.6-89.6 0-2.133 0-2.133 0 0z m-51.2-341.333c-38.4 38.4-38.4 102.4 0 140.8s102.4 38.4 142.933 0c38.4-38.4 38.4-102.4 0-142.934-38.4-38.4-102.4-38.4-142.933 2.134zM512 42.667c-61.867 0-113.067 51.2-113.067 113.066S450.133 268.8 512 268.8s113.067-51.2 113.067-113.067S573.867 42.667 512 42.667z" p-id="9582" fill="#ffffff"></path></svg>