<?xml version="1.0" standalone="no"?><!DOCTYPE svg PUBLIC "-//W3C//DTD SVG 1.1//EN" "http://www.w3.org/Graphics/SVG/1.1/DTD/svg11.dtd"><svg t="1690514635322" class="icon" viewBox="0 0 1024 1024" version="1.1" xmlns="http://www.w3.org/2000/svg" p-id="1819" xmlns:xlink="http://www.w3.org/1999/xlink" width="200" height="200"><path d="M512.2 429c-45.4 0-82.2 37.1-82.2 82.8 0 45.7 36.8 82.8 82.2 82.8 45.4 0 82.2-37.1 82.2-82.8-0.1-45.7-36.8-82.8-82.2-82.8zM899 609.4l-64.1-37.3c3.6-19.6 6-39.6 6-60.3 0-20.7-2.4-40.7-6-60.3l64.1-37.3c26.2-15.2 35.2-49 20-75.4l-54.8-95.7c-15.1-26.4-48.6-35.5-74.8-20.2l-64.8 37.7c-30.3-26-64.7-47.2-102.9-60.9v-46.9c0-30.5-24.5-55.2-54.8-55.2H457.4c-30.2 0-54.8 24.7-54.8 55.2v46.9c-38.2 13.7-72.7 34.9-102.9 60.9l-64.8-37.7c-26.2-15.3-59.7-6.2-74.8 20.2l-54.8 95.7c-15.1 26.4-6.1 60.2 20 75.4l64.1 37.3c-3.6 19.6-6 39.6-6 60.3 0 20.7 2.4 40.7 6 60.3l-64.1 37.3c-26.2 15.2-35.2 49-20 75.4l54.8 95.7c15.1 26.4 48.6 35.5 74.8 20.2l64.8-37.7c30.3 26 64.7 47.2 102.9 60.9v46.9c0 30.5 24.5 55.2 54.8 55.2H567c30.2 0 54.8-24.7 54.8-55.2v-46.9C660 810.2 694.4 789 724.7 763l64.8 37.7c26.2 15.2 59.7 6.2 74.8-20.2l54.8-95.7c15.1-26.3 6.1-60.1-20.1-75.4z m-386.8 40.5c-75.6 0-136.9-61.8-136.9-138.1s61.3-138.1 136.9-138.1c75.6 0 136.9 61.8 136.9 138.1s-61.3 138.1-136.9 138.1z" fill="#ffffff" p-id="1820"></path></svg>