<?xml version="1.0" standalone="no"?><!DOCTYPE svg PUBLIC "-//W3C//DTD SVG 1.1//EN" "http://www.w3.org/Graphics/SVG/1.1/DTD/svg11.dtd"><svg t="1690514645115" class="icon" viewBox="0 0 1024 1024" version="1.1" xmlns="http://www.w3.org/2000/svg" p-id="2590" xmlns:xlink="http://www.w3.org/1999/xlink" width="200" height="200"><path d="M143.36 737.28a81.92 81.92 0 0 1-81.92-81.92V368.64a81.92 81.92 0 0 1 81.92-81.92h163.84l171.6224-148.74624A81.92 81.92 0 0 1 614.4 199.8848v624.2304a81.92 81.92 0 0 1-135.5776 61.91104L307.2 737.28H143.36z m684.83072-515.4816A358.07232 358.07232 0 0 1 962.56 501.76a358.07232 358.07232 0 0 1-134.36928 279.9616 30.72 30.72 0 0 1-38.46144-47.9232 296.63232 296.63232 0 0 0 111.4112-232.0384c0-91.40224-41.472-175.9232-111.4112-232.0384a30.72 30.72 0 1 1 38.46144-47.9232z m-114.9952 121.18016C772.7104 382.09536 808.96 444.14976 808.96 512c0 67.85024-36.2496 129.90464-95.76448 169.02144a30.72 30.72 0 1 1-33.75104-51.32288C722.3296 601.4976 747.52 558.32576 747.52 512s-25.21088-89.51808-68.07552-117.69856a30.72 30.72 0 1 1 33.75104-51.32288z" fill="#ffffff" p-id="2591"></path></svg>