<?xml version="1.0" standalone="no"?><!DOCTYPE svg PUBLIC "-//W3C//DTD SVG 1.1//EN" "http://www.w3.org/Graphics/SVG/1.1/DTD/svg11.dtd"><svg t="1690514643015" class="icon" viewBox="0 0 1024 1024" version="1.1" xmlns="http://www.w3.org/2000/svg" p-id="2436" xmlns:xlink="http://www.w3.org/1999/xlink" width="200" height="200"><path d="M594.39104 146.2272A81.92 81.92 0 0 1 614.4 199.8848v624.2304a81.92 81.92 0 0 1-135.5776 61.91104L307.2 737.28H143.36a81.92 81.92 0 0 1-81.92-81.92V368.64a81.92 81.92 0 0 1 81.92-81.92h163.84l171.6224-148.74624a81.92 81.92 0 0 1 115.56864 8.25344zM953.5488 381.66528a30.72 30.72 0 0 1 0 43.4176l-86.85568 86.8352 86.8352 86.85568a30.72 30.72 0 1 1-43.4176 43.4176l-86.8352-86.8352-86.8352 86.8352a30.72 30.72 0 0 1-43.4176-43.4176l86.8352-86.8352-86.8352-86.8352a30.72 30.72 0 1 1 43.4176-43.43808l86.8352 86.8352 86.8352-86.8352a30.72 30.72 0 0 1 43.4176 0z" fill="#ffffff" p-id="2437"></path></svg>