<?xml version="1.0" standalone="no"?><!DOCTYPE svg PUBLIC "-//W3C//DTD SVG 1.1//EN" "http://www.w3.org/Graphics/SVG/1.1/DTD/svg11.dtd"><svg t="1690514648392" class="icon" viewBox="0 0 1024 1024" version="1.1" xmlns="http://www.w3.org/2000/svg" p-id="2893" xmlns:xlink="http://www.w3.org/1999/xlink" width="200" height="200"><path d="M572.928 135.68l-43.050667 29.696-27.733333 18.773333-30.890667 20.352-12.8 8.106667-11.093333 6.826667-14.976 8.661333c-15.274667 8.533333-31.146667 16.469333-47.786667 23.893333L375.125333 256H256a85.333333 85.333333 0 0 0-85.333333 85.333333v341.333334l0.341333 7.424 1.109333 7.04C180.053333 738.730667 214.869333 768 256 768h119.253333l9.941334 4.266667c21.589333 9.642667 42.496 20.48 62.208 32.298666l17.237333 10.666667 21.205333 13.781333 44.032 29.610667 43.093334 29.738667A42.666667 42.666667 0 0 0 640 853.333333V170.666667a42.666667 42.666667 0 0 0-67.072-34.986667z m175.146667 192.341333A213.205333 213.205333 0 0 1 853.333333 512c0 75.562667-39.68 144.341333-103.125333 182.698667a42.666667 42.666667 0 0 1-44.117333-73.045334A127.872 127.872 0 0 0 768 512c0-45.909333-24.32-87.552-63.189333-110.421333a42.666667 42.666667 0 1 1 43.264-73.557334z" fill="#ffffff" p-id="2894"></path></svg>